Coordinates
version=1
nRows=16
nColumns=33
inDegrees=yes

Units are S.I. units (second, meters, Newtons, ...)
Angles are in degrees.

endheader
time	ground_thorax_rot_x	ground_thorax_rot_y	ground_thorax_rot_z	ground_thorax_tx	ground_thorax_ty	ground_thorax_tz	clav_prot_r	clav_elev_r	scapula_abduction_r	scapula_elevation_r	scapula_upward_rot_r	scapula_winging_r	shoulder_elv_r	plane_of_elev_r	axial_rot_r	elbow_flexion_r	pro_sup_r	wrist_flex_r	wrist_dev_r	clav_prot_l	clav_elev_l	scapula_abduction_l	scapula_elevation_l	scapula_upward_rot_l	scapula_winging_l	shoulder_elv_l	plane_of_elev_l	axial_rot_l	elbow_flexion_l	pro_sup_l	wrist_flex_l	wrist_dev_l
      6.11000000	     39.48956816	      9.26871127	      8.39399552	    -75.52516274	    779.79370483	     22.02528702	     16.72655131	     37.86537408	     45.00000000	     38.13261074	    -23.17637886	  -2602.23043206	  -3715.67669996	    145.54342472	    179.99999979	   1446.03608826	     49.16031686	     20.79635114	     13.14888732	      3.96275674	    -45.00000000	    -45.00000000	     45.00000000	    -23.16555749	    803.75024531	  -2263.18265656	    138.24138644	    158.31616808	    369.47126541	     22.21451078	      8.56010872	    -17.06162807
      6.12000000	     39.45767890	      9.17391906	      8.31691019	    -75.84288992	    779.81264280	     21.95328762	     17.00797982	     37.66843813	     45.00000000	     38.14017388	    -23.43066311	  -2602.21968463	  -3715.64955075	    145.33868361	    179.99999979	   1446.16938869	     49.53595324	     20.86196708	     13.53933497	      4.21515373	    -45.00000000	    -45.00000000	     45.00000000	    -22.37027731	    803.90417382	  -2263.45149612	    138.56112095	    157.17983348	    369.52914675	     22.38330045	      8.44110473	    -17.23323796
      6.13000000	     39.31176678	      9.26714721	      8.50786091	    -76.21434307	    779.80753180	     21.87237249	     16.78978464	     37.72022766	     45.00000000	     37.95583083	    -23.39396226	  -2602.15847436	  -3715.70963908	    145.69266416	    179.99999979	   1446.31661799	     49.67062737	     20.96022182	     12.83490096	      3.87842674	    -45.00000000	    -45.00000000	     45.00000000	    -22.26674689	    804.21133257	  -2263.44726025	    138.56651967	    156.67858790	    369.76146583	     22.45672927	      8.29440502	    -17.07662330
      6.14000000	     39.35081440	      9.17933189	      8.20178613	    -76.64325529	    779.77809866	     21.78266898	     16.96185036	     37.47333192	     45.00000000	     38.12316034	    -23.65659089	  -2602.27279488	  -3715.63964804	    145.10810373	    179.99999979	   1446.38517950	     50.07330297	     21.05705995	     13.70448410	      4.03810594	    -45.00000000	    -45.00000000	     45.00000000	    -22.02495916	    804.06037794	  -2263.62483450	    138.63428345	    156.44025085	    369.63295366	     22.48245806	      8.31690797	    -17.24863798
      6.15000000	     39.36392102	      9.12513040	      8.56887655	    -77.10651979	    779.72887781	     21.68777708	     16.83259495	     37.51582940	     45.00000000	     38.03078666	    -23.56131426	  -2601.99665544	  -3715.62257609	    145.50190503	    179.99999979	   1446.30502560	     50.16882282	     21.04393636	     12.84797244	      3.92657309	    -45.00000000	    -45.00000000	     45.00000000	    -22.21775757	    804.26807259	  -2263.60280499	    138.68059373	    156.24790495	    369.62300116	     22.51395373	      8.33881087	    -17.10044114
      6.16000000	     39.25920427	      9.07008643	      8.43134921	    -77.61221134	    779.66463306	     21.58544973	     16.94374339	     37.55147876	     45.00000000	     37.94417937	    -23.88624879	  -2602.32437965	  -3715.63796770	    145.08697435	    179.99999979	   1446.55022541	     50.43656774	     21.21027382	     13.62857719	      3.99213824	    -45.00000000	    -45.00000000	     45.00000000	    -21.92725717	    804.35430211	  -2263.48500235	    138.68646609	    156.32313622	    369.75689346	     22.45480537	      8.21096516	    -17.23275047
      6.17000000	     39.24895874	      9.10237777	      8.64392460	    -78.16143924	    779.59109576	     21.47451678	     16.84586936	     37.46287999	     45.00000000	     38.05739608	    -23.79628581	  -2601.89556013	  -3715.68872561	    145.52012982	    179.99999979	   1446.45291949	     50.44545576	     21.13241403	     12.75474995	      3.94775532	    -45.00000000	    -45.00000000	     45.00000000	    -22.23038537	    804.43618278	  -2263.48272253	    138.74352359	    156.15677782	    369.67915193	     22.47845823	      8.34171840	    -17.14557049
      6.18000000	     39.29353004	      8.96152340	      8.56951144	    -78.74689407	    779.51593888	     21.35603104	     16.96487773	     37.50621554	     45.00000000	     37.98690677	    -24.12802541	  -2602.29978567	  -3715.61562983	    144.97404380	    179.99999979	   1446.70135336	     50.64334210	     21.32957168	     13.57387074	      4.01013313	    -45.00000000	    -45.00000000	     45.00000000	    -22.05922359	    804.51993144	  -2263.56070434	    138.71393265	    156.23925341	    369.70983901	     22.42329608	      8.20654816	    -17.20529559
      6.19000000	     39.30158939	      9.11204523	      8.71513093	    -79.36867826	    779.44585230	     21.22979257	     16.86826702	     37.42847317	     45.00000000	     38.07379099	    -24.04610814	  -2601.90094047	  -3715.62680123	    145.60313374	    179.99999979	   1446.63098078	     50.57107325	     21.18849836	     12.64340528	      3.97348638	    -45.00000000	    -45.00000000	     45.00000000	    -22.29711383	    804.56887842	  -2263.51846494	    138.73214464	    156.08261340	    369.81665658	     22.43376396	      8.35396896	    -17.21120410
      6.20000000	     39.31020833	      8.95980890	      8.66821072	    -80.02644596	    779.38729492	     21.09613640	     16.99387168	     37.51089303	     45.00000000	     38.05200050	    -24.41245734	  -2602.25599287	  -3715.54278068	    144.96037721	    179.99999979	   1446.74718481	     50.74488551	     21.39797209	     13.52383027	      4.02963957	    -45.00000000	    -45.00000000	     45.00000000	    -22.17290917	    804.68486841	  -2263.56163936	    138.74633805	    156.15993841	    369.72123783	     22.40022893	      8.19344090	    -17.20055541
      6.21000000	     39.29387992	      9.03785421	      8.75799186	    -80.72921022	    779.34541973	     20.95342598	     16.90974124	     37.44698153	     45.00000000	     38.18243519	    -24.36440872	  -2601.89348505	  -3715.60719341	    145.55343204	    179.99999979	   1446.82616873	     50.62397469	     21.26432728	     12.62537089	      4.00625364	    -45.00000000	    -45.00000000	     45.00000000	    -22.37730796	    804.79948878	  -2263.44521901	    138.71446144	    156.01058100	    369.94254547	     22.41408161	      8.32822228	    -17.26399166
      6.22000000	     39.35490150	      9.07377923	      8.84421433	    -81.47509099	    779.32642651	     20.80250965	     17.03205146	     37.47841211	     45.00000000	     38.20541739	    -24.74157909	  -2602.12860965	  -3715.46611746	    145.21433001	    179.99999979	   1446.98741609	     50.71387211	     21.39921242	     13.16294328	      4.06871511	    -45.00000000	    -45.00000000	     45.00000000	    -22.42230079	    804.87086607	  -2263.52357471	    138.82903523	    156.06805649	    369.93544906	     22.40708905	      8.21213400	    -17.26848673
      6.23000000	     39.35359867	      8.95535955	      8.69915221	    -82.26092347	    779.33578265	     20.64431457	     17.03109659	     37.58574284	     45.00000000	     38.30014885	    -24.90298765	  -2602.13224364	  -3715.46365964	    145.09753735	    179.99999979	   1447.01545006	     50.70687987	     21.46674290	     13.04521373	      4.08614575	    -45.00000000	    -45.00000000	     45.00000000	    -22.39895706	    805.10959315	  -2263.45231068	    138.58341985	    156.02286170	    370.00477044	     22.41974219	      8.17956438	    -17.26261413
      6.24000000	     39.34109466	      9.02658847	      8.82726679	    -83.09985491	    779.37875062	     20.47694833	     17.07754324	     37.56806865	     45.00000000	     38.39534171	    -25.09004905	  -2602.10911883	  -3715.47065129	    145.21120142	    179.99999979	   1447.18771801	     50.73619992	     21.50284682	     13.19226459	      4.04183704	    -45.00000000	    -45.00000000	     45.00000000	    -22.38615964	    805.09411519	  -2263.44757748	    138.86367621	    156.03989505	    370.08674691	     22.43897921	      8.15520390	    -17.31602807
      6.25000000	     39.37968324	      8.89016664	      8.69758945	    -83.99049982	    779.46082989	     20.30167265	     17.11682658	     37.69219509	     45.00000000	     38.50374278	    -25.34808114	  -2602.13285399	  -3715.36711074	    144.97899712	    179.99999979	   1447.25978605	     50.72329489	     21.56005198	     13.01344964	      4.12867395	    -45.00000000	    -45.00000000	     45.00000000	    -22.46893826	    805.43592350	  -2263.35262376	    138.52709294	    155.95222622	    370.11380697	     22.46757410	      8.10526327	    -17.28540785
      6.26000000	     39.39416241	      9.04937327	      8.88593048	    -84.94288429	    779.58630257	     20.11803224	     17.15255312	     37.68746762	     45.00000000	     38.65378207	    -25.58813567	  -2602.07447057	  -3715.37699110	    145.18787986	    179.99999979	   1447.43683247	     50.76038931	     21.61534339	     13.20198739	      4.05356650	    -45.00000000	    -45.00000000	     45.00000000	    -22.49823694	    805.34270534	  -2263.38694541	    138.93155758	    156.00084325	    370.24434155	     22.48615708	      8.08626740	    -17.36251414
